<svg width="180" height="100" viewBox="0 0 180 100" fill="none" xmlns="http://www.w3.org/2000/svg">
<rect width="180" height="100" fill="#F3F4F8"/>
<rect x="76.5513" y="42.8728" width="27.0507" height="18.8416" fill="#E7EBEC"/>
<rect width="29.5" height="2.39279" rx="1.1964" transform="matrix(1 0 0 -1 75.3719 64.1072)" fill="#BBC1CA"/>
<path d="M80.0078 54.0776C80.0078 51.9 81.7731 50.1348 83.9506 50.1348C86.1282 50.1348 87.8935 51.9 87.8935 54.0776V61.7145H80.0078V54.0776Z" fill="#9CA7B1"/>
<rect x="91.2776" y="49.8789" width="9.1302" height="8.20833" rx="1.28" fill="#B3BBC3"/>
<path d="M87.6493 35.8928L87.0017 42.9454H93.0119L92.3082 35.8928H87.6493Z" fill="#BCC4CB"/>
<path d="M87.0018 42.9456H93.012V45.1455C93.012 46.8052 91.6666 48.1506 90.0069 48.1506C88.3472 48.1506 87.0018 46.8052 87.0018 45.1455V42.9456Z" fill="#B2BAC1"/>
<path d="M80.9916 42.9456H87.0017V45.1455C87.0017 46.8052 85.6563 48.1506 83.9967 48.1506C82.337 48.1506 80.9916 46.8052 80.9916 45.1455V42.9456Z" fill="#D5D9DC"/>
<path d="M82.9918 35.8952L80.9916 42.9478H87.0014L87.6759 35.8928L82.9918 35.8952Z" fill="#DDE2E5"/>
<path d="M98.9906 42.9456H92.9804V45.1455C92.9804 46.8052 94.3259 48.1506 95.9855 48.1506C97.6452 48.1506 98.9906 46.8052 98.9906 45.1455V42.9456Z" fill="#D5D9DC"/>
<path d="M96.9904 35.8952L98.9906 42.9478H92.9808L92.3063 35.8928L96.9904 35.8952Z" fill="#DDE2E5"/>
<path d="M75.1597 42.9456H81.0089V45.1455C81.0089 46.8052 79.6635 48.1506 78.0039 48.1506C76.3442 48.1506 74.9988 46.8052 74.9988 45.1455L74.9988 44.303L75.0039 44.0707C75.0122 43.6909 75.0645 43.3133 75.1597 42.9456Z" fill="#B2BAC1"/>
<path d="M81.0043 42.9454H75.1654L75.1902 42.8459C75.29 42.4441 75.432 42.054 75.6138 41.6821L77.8045 37.3067C78.2384 36.4401 79.1244 35.8928 80.0936 35.8928H82.9976L81.0043 42.9454Z" fill="#BCC4CB"/>
<path d="M104.84 42.9456H98.9909V45.1455C98.9909 46.8052 100.336 48.1506 101.996 48.1506C103.656 48.1506 105.001 46.8052 105.001 45.1455L105.001 44.303L104.996 44.0707C104.988 43.6909 104.935 43.3133 104.84 42.9456Z" fill="#B2BAC1"/>
<path d="M98.9956 42.9454H104.834L104.81 42.8459C104.71 42.4441 104.568 42.054 104.386 41.6821L102.195 37.3067C101.762 36.4401 100.875 35.8928 99.9063 35.8928H97.0023L98.9956 42.9454Z" fill="#BCC4CB"/>
</svg>
